<?xml version="1.0" encoding="utf-8"?>
<svg width="629px" height="515px" viewbox="0 0 629 515" version="1.1" xmlns:xlink="http://www.w3.org/1999/xlink" xmlns="http://www.w3.org/2000/svg">
  <defs>
    <linearGradient x1="0.5" y1="0" x2="0.5" y2="0.9936899" id="gradient_1">
      <stop offset="0" stop-color="#000000" />
      <stop offset="0.18438593" stop-color="#050505" />
      <stop offset="1" stop-color="#262626" />
    </linearGradient>
    <path d="M0 189.054C0 189.054 38.5504 192.956 70.0567 166.733C101.563 140.509 115.556 110.419 102.61 64.8899C89.6637 19.3606 22.6472 0 22.6472 0C22.6472 0 67.6272 53.9928 53.7078 82.8143C39.7884 111.636 5.57914 112.541 5.57914 112.541" id="path_1" />
    <path d="M78.2238 0C78.2238 0 68.7654 33.5566 78.2238 49.366C89.1718 67.6653 110.05 76.0404 117.007 88.5694C129.973 111.923 111.178 117.856 82.6821 105.965C54.186 94.0741 -1.34545e-14 60.755 -1.34545e-14 60.755C-1.34545e-14 60.755 78.2238 0 78.2238 0Z" id="path_2" />
    <path d="M0 88.9833C0 88.9833 8.19501 14.9613 14.2773 4.46387C20.3596 -6.03361 36.2624 3.35169 45.4585 18.4219C54.6545 33.4921 70.7921 93.8248 70.7921 130.289C50.1356 111.75 0 88.9833 0 88.9833Z" transform="matrix(1 -4.3245407E-09 4.3245407E-09 1 -7.6293945E-06 0)" id="path_3" />
    <path d="M0 88.9833C0 88.9833 8.19501 14.9613 14.2773 4.46387C20.3596 -6.03361 36.2623 3.35169 45.4584 18.4219C54.6545 33.4921 70.792 93.8248 70.792 130.289C50.1356 111.75 0 88.9833 0 88.9833Z" transform="matrix(1 -4.3245407E-09 4.3245407E-09 1 0 0)" id="path_4" />
    <path d="M122.465 359.893C190.101 359.893 244.931 310.213 244.931 235.055C244.931 159.898 190.101 9.52861e-14 122.465 9.52861e-14C54.8296 9.52861e-14 0 159.898 0 235.055C0 310.213 54.8296 359.893 122.465 359.893Z" id="path_5" />
    <clipPath id="mask_1">
      <use xlink:href="#path_1" />
    </clipPath>
    <clipPath id="mask_2">
      <use xlink:href="#path_2" />
    </clipPath>
    <clipPath id="mask_3">
      <use xlink:href="#path_3" />
    </clipPath>
    <clipPath id="mask_4">
      <use xlink:href="#path_4" />
    </clipPath>
    <clipPath id="mask_5">
      <use xlink:href="#path_5" />
    </clipPath>
  </defs>
  <g id="cat" transform="translate(268.5 45.33789)">
    <g id="Group-2" transform="matrix(-1 0 0 1 130 0)">
      <path d="M0 42.5644C0 42.5644 21.6986 5.91708 32.5 1.18402C43.3014 -3.54904 53.5939 6.26212 56.6834 24.288C59.773 42.3139 65 100 65 100L0 42.5644Z" id="Path-26" fill="#000000" fill-rule="evenodd" stroke="none" />
      <path d="M0 22.9193C0 22.9193 11.4875 3.18612 17.2059 0.63755C22.9243 -1.91102 28.3732 3.37191 30.0089 13.0781C31.6445 22.7844 34.4118 53.8462 34.4118 53.8462L0 22.9193Z" transform="translate(15.294118 25)" id="Path-26" fill="#C3867B" fill-rule="evenodd" stroke="none" />
    </g>
    <g id="Group-2" transform="translate(156 0)">
      <path d="M0 42.5644C0 42.5644 21.6986 5.91708 32.5 1.18402C43.3014 -3.54904 53.5939 6.26212 56.6834 24.288C59.773 42.3139 65 100 65 100L0 42.5644Z" id="Path-26" fill="#000000" fill-rule="evenodd" stroke="none" />
      <path d="M0 22.9193C0 22.9193 11.4875 3.18612 17.2059 0.63755C22.9243 -1.91102 28.3732 3.37191 30.0089 13.0781C31.6445 22.7844 34.4118 53.8462 34.4118 53.8462L0 22.9193Z" transform="translate(15.294118 25)" id="Path-26" fill="#C3867B" fill-rule="evenodd" stroke="none" />
    </g>
    <path d="M160.5 60C249.142 60 321 46.5685 321 30C321 13.4315 249.142 0 160.5 0C71.8583 0 0 13.4315 0 30C0 46.5685 71.8583 60 160.5 60Z" transform="translate(11 387)" id="Oval" fill="#000000" fill-opacity="0.1" fill-rule="evenodd" stroke="none" />
    <path d="M10.4536 20C16.227 20 20.9072 18.1654 20.9072 15.9023C20.9072 14.6459 41.093 1.01935 38.8218 0.267678C37.0019 -0.334598 17.2197 0.267678 14.6516 0.267678C8.87818 0.267678 0 13.6392 0 15.9023C0 18.1654 4.68025 20 10.4536 20Z" transform="translate(156 422)" id="Oval" fill="#000000" fill-opacity="0.3" fill-rule="evenodd" stroke="none" />
    <path d="M10.4536 20C16.227 20 20.9072 18.1654 20.9072 15.9023C20.9072 14.6459 41.093 1.01935 38.8218 0.267678C37.0019 -0.334598 17.2197 0.267678 14.6516 0.267678C8.87818 0.267678 0 13.6392 0 15.9023C0 18.1654 4.68025 20 10.4536 20Z" transform="matrix(-1 0 0 1 132 422)" id="Oval" fill="#000000" fill-opacity="0.3" fill-rule="evenodd" stroke="none" />
    <path d="M143.794 388.994C154.853 388.93 221.021 388.184 257.911 379.466C298.254 369.931 287.347 306.023 273.038 279.405C258.729 252.787 231.015 212.29 231.015 169.49C231.015 126.689 227.094 84.6255 217.567 41.4927C208.657 1.15086 150.49 0.0319209 143 0.0560255C135.51 0.0319209 77.3431 1.15086 68.4326 41.4927C58.9057 84.6255 54.9853 126.689 54.9853 169.49C54.9853 212.29 27.2711 252.787 12.9621 279.405C-1.34689 306.023 -12.2545 369.931 28.0891 379.466C64.9789 388.184 131.147 388.93 142.206 388.994L142.206 389C142.206 389 142.479 389 143 388.998C143.521 389 143.794 389 143.794 389L143.794 388.994Z" transform="translate(0 39)" id="Path-28" fill="#000000" fill-rule="evenodd" stroke="none" />
    <path d="M0.751219 11.3093C0.800633 11.3622 3.27133 13 6.43382 13C8.65744 13 11.1775 12.2075 13.5 9.51303C15.8225 12.2075 18.3426 13 20.5662 13C23.7287 13 26.1994 11.3622 26.2488 11.3093C26.99 10.781 27.2371 9.67153 26.7429 8.87903C26.2488 8.08654 25.2111 7.82238 24.4699 8.3507C24.2722 8.5092 19.5285 11.6792 15.6248 6.76572C16.8601 5.81472 18.1449 4.44107 18.1449 2.85608C18.1449 -0.208227 15.9707 0.00310496 13.3023 0.00310496C10.634 0.00310496 8.45978 -0.208227 8.45978 2.85608C8.45978 4.54673 9.89279 5.97322 11.227 6.92422C7.47151 11.4678 3.07367 8.72053 2.53012 8.3507C1.78891 7.82238 0.751219 8.08654 0.25708 8.87903C-0.237059 9.67153 0.0100108 10.781 0.751219 11.3093Z" transform="translate(130 137)" id="Path" fill="#FFFFFF" fill-opacity="0.2" stroke="none" />
    <path d="M37.8911 0C37.8911 0 25.4135 25.6319 14.9107 58.9018C4.40797 92.1717 -2.58816 130.345 0.909903 140.818C4.40797 151.292 19.4135 149.452 22.3844 140.818C25.3553 132.185 45.5113 81.7103 65.1903 44.1494C84.8692 6.58847 37.8911 0 37.8911 0Z" transform="translate(155 292)" id="Path-35" fill="url(#gradient_1)" fill-rule="evenodd" stroke="none" />
    <path d="M37.8911 0C37.8911 0 25.4135 25.6319 14.9107 58.9018C4.40797 92.1717 -2.58816 130.345 0.909903 140.818C4.40797 151.292 19.4135 149.452 22.3844 140.818C25.3553 132.185 45.5113 81.7103 65.1903 44.1494C84.8692 6.58847 37.8911 0 37.8911 0Z" transform="matrix(-1 0 0 1 135 292)" id="Path-35" fill="url(#gradient_1)" fill-rule="evenodd" stroke="none" />
    <g id="Group-3" transform="translate(157 81)">
      <path d="M19.5 39C30.2696 39 39 30.2696 39 19.5C39 8.73045 30.2696 0 19.5 0C8.73045 0 0 8.73045 0 19.5C0 30.2696 8.73045 39 19.5 39Z" id="Oval" fill="#FFFFFF" fill-rule="evenodd" stroke="none" />
      <path d="M7.8 31.2C12.1078 31.2 15.6 24.2156 15.6 15.6C15.6 6.98436 12.1078 0 7.8 0C3.49218 0 0 6.98436 0 15.6C0 24.2156 3.49218 31.2 7.8 31.2Z" transform="translate(11.7 3.9)" id="Oval" fill="#000000" fill-rule="evenodd" stroke="none" />
    </g>
    <g id="Group-3" transform="translate(88 81)">
      <path d="M19.5 39C30.2696 39 39 30.2696 39 19.5C39 8.73045 30.2696 0 19.5 0C8.73045 0 0 8.73045 0 19.5C0 30.2696 8.73045 39 19.5 39Z" id="Oval" fill="#FFFFFF" fill-rule="evenodd" stroke="none" />
      <path d="M7.8 31.2C12.1078 31.2 15.6 24.2156 15.6 15.6C15.6 6.98436 12.1078 0 7.8 0C3.49218 0 0 6.98436 0 15.6C0 24.2156 3.49218 31.2 7.8 31.2Z" transform="translate(11.7 3.9)" id="Oval" fill="#000000" fill-rule="evenodd" stroke="none" />
    </g>
    <path d="M40.4865 5.85339e-13C40.4865 5.85339e-13 85.9542 2.27434 125.088 12.5249C164.223 22.7754 127.615 57 0 57" transform="translate(205 397)" id="Path-27" fill="none" fill-rule="evenodd" stroke="#000000" stroke-width="30" stroke-linecap="round" stroke-linejoin="round" />
  </g>
  <g id="Dog" transform="translate(1.5 1.5)">
    <path d="M163 4.35415C169.28 3.70814 281.555 -7.52341 281.555 15.2642C281.555 19.2579 290.659 27.4282 300.625 36.3734C318.025 51.9898 338.057 69.9681 316.877 72.2095C299.992 73.9965 261.904 73.2701 241.204 75.629C223.711 77.6223 208.034 80.7816 190.104 85.4739C182.225 87.5358 165.349 81.716 163 80.8818C160.651 81.716 143.775 87.5358 135.896 85.4739C117.966 80.7816 102.289 77.6223 84.7964 75.629C64.0956 73.2701 26.0084 73.9965 9.12259 72.2095C-12.0569 69.9681 7.97464 51.9898 25.3746 36.3734C35.3414 27.4282 44.4447 19.2579 44.4447 15.2642C44.4447 -7.52341 156.72 3.70814 163 4.35415Z" transform="translate(50 404.8246)" id="Oval-2" fill="#CFCFCF" fill-rule="evenodd" stroke="none" />
    <g id="Tail" transform="matrix(-1 0 0 1 108 216.79553)">
      <path d="M0 189.054C0 189.054 38.5504 192.956 70.0567 166.733C101.563 140.509 115.556 110.419 102.61 64.8899C89.6637 19.3606 22.6472 0 22.6472 0C22.6472 0 67.6272 53.9928 53.7078 82.8143C39.7884 111.636 5.57914 112.541 5.57914 112.541" id="Path-32" fill="#FFFFFF" fill-rule="evenodd" stroke="none" />
      <g clip-path="url(#mask_1)">
        <path d="M21.5078 0C21.5078 0 40.7484 63.8844 33.5665 103.933C26.3846 143.982 0 103.933 0 103.933L21.5078 0Z" transform="translate(-6.5334983 86.70323)" id="Path-38" fill="#DCDCDC" fill-rule="evenodd" stroke="none" />
      </g>
    </g>
    <g id="leg" transform="translate(255 364.81836)">
      <path d="M78.2238 0C78.2238 0 68.7654 33.5566 78.2238 49.366C89.1718 67.6653 110.05 76.0404 117.007 88.5694C129.973 111.923 111.178 117.856 82.6821 105.965C54.186 94.0741 -1.34545e-14 60.755 -1.34545e-14 60.755C-1.34545e-14 60.755 78.2238 0 78.2238 0Z" id="Path-31" fill="#FFFFFF" fill-rule="evenodd" stroke="none" />
      <g clip-path="url(#mask_2)">
        <path d="M62.883 31.5261C62.883 31.5261 26.6679 98.2486 43.3365 117.108C60.005 135.967 -1.40313e-12 91.0231 -1.40313e-12 91.0231L47.3456 0L62.883 31.5261Z" transform="translate(17.257402 -19.929321)" id="Path-37" fill="#DCDCDC" fill-rule="evenodd" stroke="none" />
      </g>
    </g>
    <g id="leg" transform="matrix(-1 0 0 1 172 364.81836)">
      <path d="M78.2238 0C78.2238 0 68.7654 33.5566 78.2238 49.366C89.1718 67.6653 110.05 76.0404 117.007 88.5694C129.973 111.923 111.178 117.856 82.6821 105.965C54.186 94.0741 -1.34545e-14 60.755 -1.34545e-14 60.755C-1.34545e-14 60.755 78.2238 0 78.2238 0Z" id="Path-31" fill="#FFFFFF" fill-rule="evenodd" stroke="none" />
      <g clip-path="url(#mask_2)">
        <path d="M62.883 31.5261C62.883 31.5261 26.6679 98.2486 43.3365 117.108C60.005 135.967 -1.40313e-12 91.0231 -1.40313e-12 91.0231L47.3456 0L62.883 31.5261Z" transform="translate(17.257402 -19.929321)" id="Path-37" fill="#DCDCDC" fill-rule="evenodd" stroke="none" />
      </g>
    </g>
    <g id="Ear-" transform="matrix(0.9848077 0.17364818 -0.17364818 0.9848077 254.94836 0)">
      <path d="M0 88.9833C0 88.9833 8.19501 14.9613 14.2773 4.46387C20.3596 -6.03361 36.2624 3.35169 45.4585 18.4219C54.6545 33.4921 70.7921 93.8248 70.7921 130.289C50.1356 111.75 0 88.9833 0 88.9833Z" transform="matrix(1 -4.3245407E-09 4.3245407E-09 1 -7.6293945E-06 0)" id="Path-29" fill="#FFFFFF" fill-rule="evenodd" stroke="none" />
      <g clip-path="url(#mask_3)">
        <path d="M0 49.0005C0 49.0005 1.67067 9.82224 6.16413 2.0196C10.6576 -5.78303 21.3414 10.4289 26.2071 26.6079C31.0729 42.7869 31.4208 68.0542 31.4208 68.0542L0 49.0005Z" transform="matrix(1 -4.3245407E-09 4.3245407E-09 1 17.957205 35.947987)" id="Path-30" fill="#FFBDB1" fill-rule="evenodd" stroke="none" />
      </g>
    </g>
    <g id="Ear-" transform="matrix(-0.9848077 0.17364818 0.17364818 0.9848077 168.58875 -1.9073486E-06)">
      <path d="M0 88.9833C0 88.9833 8.19501 14.9613 14.2773 4.46387C20.3596 -6.03361 36.2623 3.35169 45.4584 18.4219C54.6545 33.4921 70.792 93.8248 70.792 130.289C50.1356 111.75 0 88.9833 0 88.9833Z" transform="matrix(1 -4.3245407E-09 4.3245407E-09 1 0 0)" id="Path-29" fill="#FFFFFF" fill-rule="evenodd" stroke="none" />
      <g clip-path="url(#mask_4)">
        <path d="M0 49.0005C0 49.0005 1.67067 9.82224 6.16413 2.0196C10.6576 -5.78303 21.3414 10.4289 26.2071 26.6079C31.0729 42.7869 31.4207 68.0542 31.4207 68.0542L0 49.0005Z" transform="matrix(1 -4.3245407E-09 4.3245407E-09 1 17.957212 35.94811)" id="Path-30" fill="#FFBDB1" fill-rule="evenodd" stroke="none" />
      </g>
    </g>
    <g id="body" transform="translate(90 107.77869)">
      <path d="M122.465 359.893C190.101 359.893 244.931 310.213 244.931 235.055C244.931 159.898 190.101 9.52861e-14 122.465 9.52861e-14C54.8296 9.52861e-14 0 159.898 0 235.055C0 310.213 54.8296 359.893 122.465 359.893Z" id="Oval" fill="#FFFFFF" fill-rule="evenodd" stroke="none" />
      <g clip-path="url(#mask_5)">
        <path d="M1.24492e-12 141.661C1.24492e-12 141.661 14.7996 101.671 28.9836 73.9274C43.1677 46.1838 70.3329 4.25368 70.3329 4.25368C70.3329 4.25368 91.7701 -8.50494 86.5979 17.005C81.4256 42.515 53.8836 127.912 53.8836 127.912L1.24492e-12 141.661Z" transform="translate(128.08311 224.15466)" id="Path-36" fill="#DCDCDC" fill-rule="evenodd" stroke="none" />
        <path d="M1.24492e-12 141.661C1.24492e-12 141.661 14.7996 101.671 28.9836 73.9274C43.1677 46.1838 70.3329 4.25368 70.3329 4.25368C70.3329 4.25368 91.7701 -8.50494 86.5979 17.005C81.4256 42.515 53.8836 127.912 53.8836 127.912L1.24492e-12 141.661Z" transform="matrix(-1 0 0 1 116.81515 224.15466)" id="Path-36" fill="#DCDCDC" fill-rule="evenodd" stroke="none" />
        <path d="M0 94.0612L48.2791 41.8345L27.9702 0L13.3804 56.1747L0 94.0612Z" transform="translate(187.7161 104.34949)" id="Path-42" fill="#EFEFEF" fill-rule="evenodd" stroke="none" />
        <path d="M0 105.473L56.5499 41.8345L36.2409 0L21.6511 56.1747L0 105.473Z" transform="matrix(-1 0 0 1 64.39815 104.34949)" id="Path-42" fill="#EFEFEF" fill-rule="evenodd" stroke="none" />
      </g>
    </g>
    <path d="M111 290.045C172.304 290.045 222 253.534 222 198.3C222 143.066 170.061 5.10946e-13 108.758 5.10946e-13C47.454 5.10946e-13 0 143.066 0 198.3C0 253.534 49.6964 290.045 111 290.045Z" transform="matrix(1 0 0 -1 102 364.81836)" id="Oval" fill="#EFEFEF" fill-rule="evenodd" stroke="none" />
    <path d="M111 256.04C172.304 256.04 222 220.695 222 167.226C222 113.756 172.304 6.77896e-14 111 6.77896e-14C49.6964 6.77896e-14 0 113.756 0 167.226C0 220.695 49.6964 256.04 111 256.04Z" transform="matrix(1 0 0 -1 102 330.8131)" id="Oval" fill="#FFFFFF" fill-rule="evenodd" stroke="none" />
    <path d="M88 0C88 0 39.3085 43.7679 23.0633 93.5952C6.81806 143.423 -4.00326 200.594 1.4074 216.279C6.81806 231.965 18.4681 229.21 23.0633 216.279C27.6585 203.349 80.9386 88.8696 80.9386 88.8696L88 0Z" transform="translate(232 261.8025)" id="Path-35" fill="#FFFFFF" fill-rule="evenodd" stroke="none" />
    <path d="M88 0C88 0 39.3085 43.7679 23.0633 93.5952C6.81806 143.423 -4.00326 200.594 1.4074 216.279C6.81806 231.965 18.4681 229.21 23.0633 216.279C27.6585 203.349 80.9386 88.8696 80.9386 88.8696L88 0Z" transform="matrix(-1 0 0 1 194 261.8025)" id="Path-35" fill="#FFFFFF" fill-rule="evenodd" stroke="none" />
    <g id="face-copy" transform="translate(169.28918 133.7948)">
      <path d="M24.0309 42.8792C27.4066 42.8792 48.0618 23.5453 48.0618 15.1682C48.0618 6.79102 37.3028 0 24.0309 0C10.759 0 0 6.79102 0 15.1682C0 23.5453 20.6552 42.8792 24.0309 42.8792Z" transform="translate(17.127197 42.13982)" id="Oval" fill="#000000" fill-rule="evenodd" stroke="none" />
      <path d="M0 0L13.4719 0L13.4719 11.1964Q13.4719 11.3617 13.4638 11.5269Q13.4556 11.692 13.4394 11.8565Q13.4232 12.0211 13.399 12.1846Q13.3747 12.3481 13.3425 12.5103Q13.3102 12.6725 13.27 12.8328Q13.2299 12.9932 13.1819 13.1514Q13.1339 13.3096 13.0782 13.4653Q13.0225 13.621 12.9592 13.7737Q12.8959 13.9265 12.8252 14.0759Q12.7546 14.2254 12.6766 14.3712Q12.5987 14.517 12.5137 14.6588Q12.4287 14.8006 12.3368 14.9381Q12.245 15.0756 12.1465 15.2084Q12.048 15.3412 11.9431 15.469Q11.8382 15.5968 11.7272 15.7193Q11.6162 15.8418 11.4993 15.9587Q11.3823 16.0756 11.2598 16.1866Q11.1373 16.2977 11.0095 16.4026Q10.8817 16.5074 10.7489 16.6059Q10.6161 16.7044 10.4787 16.7963Q10.3412 16.8881 10.1994 16.9731Q10.0576 17.0581 9.91176 17.1361Q9.76595 17.214 9.61649 17.2847Q9.46703 17.3554 9.31428 17.4187Q9.16153 17.4819 9.00587 17.5376Q8.8502 17.5933 8.69198 17.6413Q8.53377 17.6893 8.37339 17.7295Q8.21301 17.7697 8.05085 17.8019Q7.8887 17.8342 7.72515 17.8584Q7.56161 17.8827 7.39707 17.8989Q7.23254 17.9151 7.0674 17.9232Q6.90227 17.9313 6.73694 17.9313L6.73494 17.9313Q6.5696 17.9313 6.40447 17.9232Q6.23933 17.9151 6.0748 17.8989Q5.91026 17.8827 5.74672 17.8584Q5.58317 17.8342 5.42101 17.8019Q5.25886 17.7697 5.09848 17.7295Q4.9381 17.6893 4.77989 17.6413Q4.62167 17.5933 4.466 17.5376Q4.31033 17.4819 4.15759 17.4187Q4.00484 17.3554 3.85538 17.2847Q3.70592 17.214 3.56011 17.1361Q3.4143 17.0581 3.27249 16.9731Q3.13068 16.8881 2.99321 16.7963Q2.85574 16.7044 2.72294 16.6059Q2.59014 16.5074 2.46234 16.4026Q2.33453 16.2977 2.21203 16.1866Q2.08952 16.0756 1.97262 15.9587Q1.85571 15.8418 1.74468 15.7193Q1.63365 15.5968 1.52876 15.469Q1.42387 15.3412 1.32538 15.2084Q1.2269 15.0756 1.13504 14.9381Q1.04319 14.8006 0.958188 14.6588Q0.87319 14.517 0.795253 14.3712Q0.717315 14.2254 0.646626 14.0759Q0.575937 13.9265 0.512666 13.7737Q0.449396 13.621 0.393697 13.4653Q0.337998 13.3096 0.290004 13.1514Q0.24201 12.9932 0.201838 12.8328Q0.161665 12.6725 0.12941 12.5103Q0.0971549 12.3481 0.0728955 12.1846Q0.0486361 12.0211 0.0324305 11.8565Q0.016225 11.692 0.00811252 11.5269Q0 11.3617 0 11.1964L0 0Z" transform="translate(34.604218 78.587234)" id="Rectangle" fill="#000000" fill-rule="evenodd" stroke="none" />
      <path d="M9.36563 27.7032C14.5493 27.6957 18.7606 21.4881 18.7718 13.8381C18.783 6.18806 14.5899 -0.00746039 9.40618 6.74271e-06C4.2225 0.00747387 0.0112209 6.2151 2.23785e-05 13.8651C-0.0111761 21.5151 4.18195 27.7107 9.36563 27.7032Z" transform="matrix(0.9961947 0.08715574 -0.08715574 0.9961947 2.4142272 0.00018456578)" id="Oval" fill="#000000" fill-rule="evenodd" stroke="none" />
      <path d="M9.40619 27.7031C14.5899 27.7105 18.783 21.515 18.7718 13.8651C18.7606 6.21507 14.5493 0.00747384 9.36563 6.74269e-06C4.18195 -0.00746036 -0.0111761 6.18803 2.23784e-05 13.838C0.0112208 21.488 4.2225 27.6956 9.40619 27.7031Z" transform="matrix(0.9961947 -0.08715574 0.08715574 0.9961947 61.38363 1.6364169)" id="Oval" fill="#000000" fill-rule="evenodd" stroke="none" />
    </g>
  </g>
</svg>